<svg xmlns="http://www.w3.org/2000/svg" viewBox="0 0 100 100" width="200" height="200" shape-rendering="crispEdges">
  <!-- Pixel art coin shape matching the provided logo -->
  <!-- Outer dark green border -->
  <rect x="30" y="5" width="40" height="5" fill="#7a9e50"/>
  <rect x="15" y="10" width="15" height="10" fill="#7a9e50"/>
  <rect x="70" y="10" width="15" height="10" fill="#7a9e50"/>
  <rect x="5" y="20" width="10" height="10" fill="#7a9e50"/>
  <rect x="85" y="20" width="10" height="10" fill="#7a9e50"/>
  <rect x="0" y="30" width="10" height="40" fill="#7a9e50"/>
  <rect x="90" y="30" width="10" height="40" fill="#7a9e50"/>
  <rect x="5" y="70" width="10" height="10" fill="#7a9e50"/>
  <rect x="85" y="70" width="10" height="10" fill="#7a9e50"/>
  <rect x="15" y="80" width="15" height="10" fill="#7a9e50"/>
  <rect x="70" y="80" width="15" height="10" fill="#7a9e50"/>
  <rect x="30" y="90" width="40" height="5" fill="#7a9e50"/>

  <!-- Inner light yellow-green fill -->
  <rect x="15" y="10" width="70" height="80" fill="#e8f5a3"/>
  <rect x="10" y="20" width="80" height="60" fill="#e8f5a3"/>
  <rect x="5" y="30" width="90" height="40" fill="#e8f5a3"/>
</svg>
